<svg xmlns="http://www.w3.org/2000/svg" version="1.1" xmlns:xlink="http://www.w3.org/1999/xlink" xmlns:svgjs="http://svgjs.com/svgjs" width="1140" height="1560" preserveAspectRatio="none" viewBox="0 0 1140 1560"><g mask="url(&quot;#SvgjsMask1003&quot;)" fill="none"><rect width="1140" height="1560" x="0" y="0" fill="#0e2a47"></rect><path d="M486.59 1289.02L522.71 1289.02L522.71 1295.85L486.59 1295.85z" stroke="#d3b714"></path><path d="M839.42 267.74L945.51 267.74L945.51 373.83L839.42 373.83z" stroke="#e73635"></path><path d="M40.61 1456.01a92.48 92.48 0 1 0 181.08 37.66z" stroke="#e73635"></path><path d="M874.28 65.01a13.95 13.95 0 1 0-14.36 23.92z" fill="#e73635"></path><path d="M723.87 422.7 a43.51 43.51 0 1 0 87.02 0 a43.51 43.51 0 1 0 -87.02 0z" stroke="#e73635"></path><path d="M469.63 170.44L547.07 170.44L547.07 247.88L469.63 247.88z" fill="#037b0b"></path><path d="M1085.58 1365.77L1178.05 1365.77L1178.05 1458.24L1085.58 1458.24z" stroke="#e73635"></path><path d="M864.23 649.55 a11.86 11.86 0 1 0 23.72 0 a11.86 11.86 0 1 0 -23.72 0z" stroke="#e73635"></path><path d="M140.73 1431.22a79.89 79.89 0 1 0 159.12-14.56z" stroke="#d3b714"></path><path d="M512.86 1360.42a34.2 34.2 0 1 0-8.69 67.84z" stroke="#d3b714"></path><path d="M432.51 751.9 a52.37 52.37 0 1 0 104.74 0 a52.37 52.37 0 1 0 -104.74 0z" stroke="#037b0b"></path><path d="M229.91 640.96L278.21 640.96L278.21 689.26L229.91 689.26z" stroke="#e73635"></path><path d="M-60.63 1457.34 a105.7 105.7 0 1 0 211.4 0 a105.7 105.7 0 1 0 -211.4 0z" stroke="#e73635"></path><path d="M766.63 87.65a105.07 105.07 0 1 0-187.02-95.83z" fill="#037b0b"></path><path d="M402.74 372.34a77.38 77.38 0 1 0 21.48-153.26z" fill="#e73635"></path><path d="M571.39 1097.12a113.38 113.38 0 1 0-225.22-26.33z" stroke="#e73635"></path><path d="M69.06 550.28 a20.29 20.29 0 1 0 40.58 0 a20.29 20.29 0 1 0 -40.58 0z" fill="#d3b714"></path><path d="M168.63 999.18L246.73 999.18L246.73 1077.28L168.63 1077.28z" stroke="#d3b714"></path></g><defs><mask id="SvgjsMask1003"><rect width="1140" height="1560" fill="#ffffff"></rect></mask></defs></svg>