<svg xmlns="http://www.w3.org/2000/svg" version="1.1" xmlns:xlink="http://www.w3.org/1999/xlink" xmlns:svgjs="http://svgjs.com/svgjs" width="1440" height="560" preserveAspectRatio="none" viewBox="0 0 1440 560"><g mask="url(&quot;#SvgjsMask1697&quot;)" fill="none"><rect width="1440" height="560" x="0" y="0" fill="#0e2a47"></rect><use xlink:href="#SvgjsG1725" transform="translate(0, 0)" fill="#0f457b"></use><use xlink:href="#SvgjsG1725" transform="translate(0, 480)" fill="#0f457b"></use><use xlink:href="#SvgjsG1725" transform="translate(480, 0)" fill="#0f457b"></use><use xlink:href="#SvgjsG1725" transform="translate(480, 480)" fill="#0f457b"></use><use xlink:href="#SvgjsG1725" transform="translate(960, 0)" fill="#0f457b"></use><use xlink:href="#SvgjsG1725" transform="translate(960, 480)" fill="#0f457b"></use></g><defs><mask id="SvgjsMask1697"><rect width="1440" height="560" fill="#ffffff"></rect></mask><g id="SvgjsG1722"><path d="M3.474 10.969C3.474 7.665 8.077 0.361 8.077 0.361s4.602 7.305 4.602 10.608c0 2.247-1.506 4.771-4.602 4.771-3.095 0-4.603-2.524-4.603-4.771z" fill-rule="evenodd"></path></g><g id="SvgjsG1711"><path d="M7.713 15.485C3.459 15.485 0 12.025 0 7.768 0 3.513 3.459 0.051 7.713 0.051S15.432 3.513 15.432 7.768c0 4.257-3.465 7.716-7.719 7.717z m0-1.91c3.201 0 5.81-2.604 5.81-5.809 0-3.199-2.61-5.807-5.81-5.807-3.202 0-5.804 2.609-5.804 5.807-0.001 3.206 2.602 5.809 5.804 5.809z"></path><path d="M7.753 8.787a0.574 0.574 0 0 1-0.554-0.042 0.578 0.578 0 0 1-0.259-0.399L6.931 3.862a0.58 0.58 0 0 1 1.162 0v3.478l2.975-1.4a0.578 0.578 0 0 1 0.773 0.275c0.138 0.292 0.011 0.637-0.276 0.774l-3.81 1.798z"></path></g><g id="SvgjsG1707"><path d="M2.524 8.637H0.014V7.308h2.51v1.329zM3.656 4.576L1.884 2.804l0.935-0.935 1.772 1.772-0.935 0.935z m0 6.817l0.935 0.935-1.772 1.773-0.934-0.936 1.771-1.772z m4.997-8.884h-1.33V-0.002h1.33v2.511z m-1.33 10.952h1.33v2.51h-1.33v-2.509zM12.344 4.576l-0.96-0.935 1.796-1.772 0.935 0.935-1.772 1.772z m0 6.792l1.771 1.797-0.935 0.936-1.771-1.774 0.936-0.96z m3.643-4.06v1.329h-2.51V7.308h2.509z"></path><path d="M3.702 7.984a4.184 4.184 0 1 0 8.368 0 4.184 4.184 0 1 0-8.368 0"></path></g><g id="SvgjsG1718"><path d="M15.233 9.431c0.295 0 0.569-0.239 0.61-0.532 0 0 0.056-0.411 0.056-0.899s-0.056-0.899-0.056-0.899c-0.041-0.292-0.315-0.531-0.61-0.53h-1.524c-0.295 0-0.602-0.188-0.681-0.418s-0.188-0.967 0.021-1.176l1.078-1.077c0.209-0.209 0.225-0.565 0.036-0.792l-1.268-1.268c-0.227-0.189-0.583-0.173-0.792 0.036l-1.078 1.077c-0.208 0.209-0.556 0.293-0.772 0.187s-0.822-0.552-0.821-0.847V0.767c0-0.295-0.239-0.569-0.531-0.61 0 0-0.411-0.057-0.9-0.056s-0.899 0.057-0.899 0.056c-0.293 0.04-0.532 0.315-0.532 0.61v1.524c0 0.295-0.188 0.601-0.418 0.681s-0.967 0.188-1.176-0.021l-1.078-1.078C3.689 1.665 3.333 1.649 3.107 1.837l-1.268 1.268c-0.189 0.227-0.173 0.583 0.036 0.792l1.077 1.078c0.209 0.209 0.293 0.556 0.187 0.772s-0.552 0.822-0.847 0.822H0.767c-0.295 0-0.569 0.239-0.61 0.531 0 0-0.057 0.411-0.056 0.899s0.057 0.899 0.056 0.9c0.04 0.293 0.315 0.532 0.61 0.532h1.525c0.295 0 0.601 0.188 0.681 0.417 0.079 0.23 0.188 0.967-0.02 1.176l-1.078 1.077C1.667 12.311 1.651 12.667 1.84 12.893l1.267 1.268c0.227 0.189 0.583 0.173 0.792-0.036l1.077-1.077c0.209-0.208 0.556-0.292 0.772-0.187s0.821 0.553 0.822 0.848v1.524c0 0.295 0.239 0.569 0.532 0.61 0 0 0.411 0.057 0.899 0.057s0.899-0.056 0.899-0.057c0.293-0.04 0.531-0.315 0.532-0.609v-1.524c0-0.295 0.188-0.602 0.418-0.681 0.23-0.079 0.967-0.188 1.176 0.021l1.077 1.077c0.209 0.209 0.565 0.225 0.792 0.036l1.268-1.267c0.189-0.227 0.173-0.583-0.036-0.792l-1.078-1.077c-0.209-0.209-0.293-0.557-0.186-0.773 0.106-0.216 0.552-0.822 0.847-0.822h1.525zM8 10.892c-1.597 0-2.891-1.294-2.891-2.892 0-1.596 1.295-2.891 2.891-2.891S10.892 6.404 10.892 8 9.597 10.892 8 10.892z"></path></g><g id="SvgjsG1717"><path d="M8.027 4.518c1.248-0.001 2.26-1.013 2.26-2.259 0-1.25-1.012-2.262-2.259-2.259-1.249-0.003-2.261 1.009-2.26 2.259-0.001 1.246 1.011 2.258 2.259 2.259z m0 4.728H5.632V7.513L3.808 9.355c-0.826 0.826-1.945-0.232-1.116-1.061l3.021-3.031c0.247-0.241 0.515-0.396 0.944-0.4h2.713c0.423 0.003 0.711 0.154 0.962 0.4l3.058 3.067c0.787 0.783-0.362 1.852-1.116 1.052L10.396 7.504v1.742h-2.368z m2.359 0.89L8.59 11.932l1.325 1.315-1.352 1.353c-0.8 0.795 0.3 1.936 1.125 1.115l2.132-2.222c0.462-0.47 0.588-1.334 0.1-1.824-0.005-0.003-1.533-1.534-1.533-1.534z m-4.754 0l1.796 1.796-1.315 1.316 1.352 1.352c0.795 0.796-0.305 1.937-1.126 1.116L4.198 13.493c-0.457-0.47-0.584-1.334-0.09-1.824 0-0.003 1.525-1.533 1.525-1.533z"></path></g><g id="SvgjsG1724"><path d="M8.142 3.218a0.876 0.876 0 1 0 0-1.751 0.876 0.876 0 0 0 0 1.753m1.399 0.284H6.725c-0.622 0-1.12 0.51-1.12 1.141v2.102c0 0.523 0.69 0.523 0.69 0v-2.027h0.72V7.271c0.366 0.089 0.741 0.153 1.138 0.153 0.391 0 0.764-0.066 1.129-0.153V4.711h0.711v2.03c0 0.526 0.688 0.526 0.688 0V4.658a1.145 1.145 0 0 0-1.138-1.156m1.92 4.59a5.913 5.913 0 0 1-6.635 0.018l-0.743 1.102a7.182 7.182 0 0 0 4.054 1.24c1.511 0 2.912-0.462 4.071-1.254l-0.747-1.109z"></path><path d="M12.882 10.37a8.396 8.396 0 0 1-4.74 1.454 8.412 8.412 0 0 1-4.722-1.435l-0.75 1.081a9.703 9.703 0 0 0 5.472 1.68c2.032 0 3.916-0.622 5.483-1.682l-0.743-1.095z"></path><path d="M14.293 12.629a10.916 10.916 0 0 1-6.154 1.888A10.933 10.933 0 0 1 1.991 12.633l-0.729 1.097a12.208 12.208 0 0 0 6.88 2.105 12.231 12.231 0 0 0 6.898-2.119l-0.747-1.088z"></path></g><g id="SvgjsG1703"><path d="M2.457 6.907a1.47 1.47 0 0 0-0.149 0.652l0.053 3.502L1.156 13.662a0.786 0.786 0 0 0 0.572 1.156 0.782 0.782 0 0 0 0.805-0.398l1.33-2.848a0.811 0.811 0 0 0 0.071-0.32l-0.012-2.162 2.044 0.889 0.329 2.115a0.788 0.788 0 0 0 1.55-0.266L7.442 9.28a0.795 0.795 0 0 0-0.441-0.569L5.173 7.9l1.165-2.023 0.576 0.733a0.604 0.604 0 0 0 0.22 0.156l2.198 0.64a0.622 0.622 0 0 0 0.705-0.37 0.622 0.622 0 0 0-0.341-0.808l-0.03-0.011-1.91-0.562-1.44-1.724a1.433 1.433 0 0 0-2.266 0.218l-1.595 2.759z"></path><path d="M8.764 11.924l-0.142 1.048-3.779 0.92 0.035 0.65h9.223c0.325 0 0.59-0.267 0.591-0.59L14.681 1.52 13.419 1.227l-0.729 3.265-1.213 0.511L10.4 8.018l1.024 2.306-0.288 0.885-2.373 0.715zM6.196 3.33A1.179 1.179 0 1 0 6.192 0.974a1.179 1.179 0 0 0 0.004 2.356M3.852 3.515a0.338 0.338 0 0 0-0.124-0.459l-0.569-0.334a0.338 0.338 0 0 0-0.462 0.124L0.942 5.879a0.338 0.338 0 0 0 0.125 0.459l0.572 0.329c0.16 0.094 0.363 0.039 0.457-0.121l1.756-3.031z"></path></g><g id="SvgjsG1716"><path d="M13.113 6.956a0.719 0.719 0 1 0 1.437 0 0.719 0.719 0 1 0-1.437 0"></path><path d="M8.74 3.712a1.025 1.025 0 0 0 1.025-1.025A1.026 1.026 0 0 0 8.74 1.663a1.025 1.025 0 0 0 0 2.049z m-5.559 0.007c-0.575 0-1.04-0.462-1.04-1.032C2.143 2.117 2.606 1.655 3.182 1.655c0.574 0 1.04 0.462 1.04 1.032s-0.466 1.032-1.04 1.032z m11.692 4.31h-1.94c-0.009 0-0.648-0.058-0.648-0.058l-0.813-2.832C11.145 4 10.189 4.035 10.189 4.035H7.56s-0.954-0.035-1.281 1.104l-0.401 1.395-0.4-1.395c-0.328-1.139-1.282-1.105-1.282-1.104h-2.034s-0.955-0.035-1.282 1.104L0.061 7.993c-0.078 0.267 0.068 0.47 0.301 0.537 0.233 0.067 0.471-0.051 0.532-0.264l0.798-2.78 0.389-0.001-1.164 4.815h1.029v3.42a0.509 0.509 0 0 0 0.509 0.511 0.512 0.512 0 0 0 0.511-0.511V10.3h0.431v3.42a0.51 0.51 0 0 0 0.509 0.511 0.512 0.512 0 0 0 0.512-0.512V10.299h1.011l-1.152-4.815 0.387 0.001L5.453 8.237c0.013 0.047 0.034 0.089 0.061 0.128 0.077 0.116 0.211 0.182 0.363 0.176 0.15 0.005 0.284-0.059 0.361-0.175a0.373 0.373 0 0 0 0.067-0.141l0.785-2.74 0.358 0v8.136a0.603 0.603 0 0 0 0.604 0.601 0.601 0.601 0 0 0 0.6-0.601v-4.629h0.445v4.629a0.601 0.601 0 0 0 0.601 0.601c0.333 0 0.605-0.269 0.605-0.601v-8.136l0.389 0 0.764 2.781c0.04 0.137 0.155 0.228 0.292 0.262 0.006 0.002 0.009 0.006 0.015 0.005 0.12 0.028 0.681 0.186 1.094 0.304V13.883a0.423 0.423 0 0 0 0.845 0V11.362H14.032v2.521c0 0.233 0.189 0.423 0.422 0.423s0.424-0.189 0.424-0.423V9.17h0.326v1.598c0 0.174 0.142 0.316 0.314 0.316 0.174 0 0.311-0.142 0.311-0.316V8.951c0-0.509-0.447-0.921-0.956-0.922z"></path></g><g id="SvgjsG1702"><path d="M8.43 3.58a1.188 1.188 0 0 0 0-2.372 1.186 1.186 0 0 0 0 2.372"></path><path d="M9.314 3.844h-1.73L4.634 0.894A0.6 0.6 0 0 0 3.78 0.874a0.6 0.6 0 0 0-0.024 0.856l3.08 3.086v10.228a0.664 0.664 0 0 0 1.334 0V9.496h0.54v5.548c0 0.37 0.304 0.668 0.67 0.668 0.368 0 0.664-0.3 0.664-0.668L10.04 4.816 13.12 1.73a0.6 0.6 0 0 0-0.02-0.854 0.6 0.6 0 0 0-0.856 0.02L9.314 3.84z"></path></g><g id="SvgjsG1719"><path d="M4.012 2.502a1.248 1.248 0 0 0 1.251-1.251C5.264 0.562 4.704 0.002 4.012 0c-0.69 0.002-1.25 0.562-1.251 1.251 0.001 0.693 0.561 1.252 1.251 1.251zM0.735 6.942h1.097l0.663-2.422h0.274L2.115 6.942h3.891l-0.702-2.422h0.291l0.371 1.187c0.173 0.501 0.616 0.616 0.96 0.186l1.34-1.623c0.424-0.547-0.337-1.123-0.775-0.646l-0.799 0.953c0.001 0.015-0.154-0.524-0.154-0.525-0.182-0.636-0.787-1.264-1.695-1.267H3.132c-0.811 0.003-1.447 0.709-1.582 1.154L0.735 6.942z"></path><path d="M8.993 3.64V1.146h-1.122v2.494z m3.786-1.122c0.693-0.002 1.253-0.563 1.251-1.251a1.246 1.246 0 0 0-1.251-1.251c-0.689-0.002-1.249 0.558-1.251 1.251 0.002 0.689 0.562 1.249 1.251 1.251z m1.583 11.811v-6.91h0.92V3.649c0.001-0.493-0.441-0.872-1.074-0.872H11.27c-0.584 0-0.726 0.19-0.888 0.347L7.935 6.062c-0.496 0.615 0.389 1.333 0.888 0.759L11.181 4.036v10.309c-0.003 1.036 1.45 1.07 1.453 0.032v-5.853h0.282v5.821c0.004 1.032 1.447 1.036 1.445-0.016z"></path><path d="M16 8.646v-1.421H0v1.421z"></path></g><g id="SvgjsG1700"><path d="M16 13.788a2.347 2.347 0 0 1-0.984-0.217 2.437 2.437 0 0 0-1.014-0.226c-0.364 0-0.71 0.085-1.016 0.225a2.346 2.346 0 0 1-0.984 0.218c-0.35 0-0.686-0.079-0.984-0.218-0.311-0.14-0.658-0.225-1.016-0.225-0.362 0-0.709 0.085-1.017 0.225a2.353 2.353 0 0 1-0.984 0.218c-0.35 0-0.684-0.079-0.986-0.218-0.307-0.14-0.653-0.225-1.012-0.225-0.362 0-0.709 0.085-1.016 0.225a2.359 2.359 0 0 1-0.988 0.218c-0.345 0-0.684-0.079-0.983-0.218-0.307-0.14-0.654-0.225-1.016-0.225-0.36 0-0.705 0.085-1.012 0.225A2.375 2.375 0 0 1 0 13.788v-1.493c0.35 0 0.684-0.082 0.988-0.214a2.386 2.386 0 0 1 1.012-0.229c0.362 0 0.709 0.085 1.016 0.229 0.298 0.133 0.637 0.214 0.982 0.214 0.35 0 0.69-0.082 0.988-0.214a2.394 2.394 0 0 1 1.017-0.229c0.359 0 0.705 0.085 1.011 0.229 0.302 0.133 0.636 0.214 0.987 0.214 0.347 0 0.686-0.082 0.984-0.214a2.396 2.396 0 0 1 1.016-0.229c0.358 0 0.705 0.085 1.016 0.229 0.298 0.133 0.634 0.214 0.984 0.214 0.35 0 0.684-0.082 0.984-0.214a2.386 2.386 0 0 1 1.016-0.229c0.362 0 0.709 0.085 1.015 0.229 0.3 0.133 0.634 0.214 0.984 0.214v1.493z m-2.317-4.224c1.051 0 1.903-0.866 1.903-1.928 0-1.063-0.852-1.925-1.903-1.925-1.053 0-1.904 0.862-1.904 1.925 0 1.063 0.776 1.929 1.904 1.929z"></path><path d="M2.597 10.648c0.148 0.036 0.287 0.088 0.419 0.148a2.38 2.38 0 0 0 0.983 0.218c0.35 0 0.69-0.081 0.988-0.218 0.307-0.141 0.653-0.23 1.016-0.229 0.359 0 0.705 0.089 1.012 0.229 0.302 0.136 0.636 0.218 0.986 0.218 0.347 0 0.686-0.081 0.984-0.218 0.307-0.141 0.654-0.23 1.016-0.229 0.358 0 0.705 0.089 1.016 0.229a2.37 2.37 0 0 0 0.984 0.218 2.429 2.429 0 0 0 0.733-0.117l-3.175-5.794 3.693-0.681c0.542-0.104 0.936-0.535 0.935-1.087 0-0.608-0.49-1.095-1.087-1.095-0.043 0-0.083 0-0.124 0.004l-5.704 1.05c-0.4 0.093-0.931 0.685-0.629 1.413l0.049 0.117 1.489 2.718L2.597 10.648z"></path></g><g id="SvgjsG1705"><path d="M12.872 14.056H9.025v-5.485L15.968 0H0l7.07 8.528v5.528h-3.773c-1.304 0.003-1.304 1.944 0 1.944H12.872c1.296 0 1.285-1.942 0-1.944zM8.021 4.809c-0.001-0.682 0.553-1.236 1.237-1.237 0.684 0 1.239 0.555 1.236 1.237 0.003 0.687-0.552 1.241-1.236 1.236-0.684 0.004-1.238-0.55-1.237-1.236z"></path></g><g id="SvgjsG1709"><path d="M2.796 14.654h-1.184C0.792 14.653 0.001 14.052 0 13.006c0 0 0.001-7.471 0-7.494 0.001-0.926 0.773-1.629 1.612-1.63h1.184v10.772z m7.448-10.754V2.352c0.004-0.558-0.49-0.914-1.093-0.91 0 0-2.303-0.004-2.294 0-0.6-0.004-1.103 0.352-1.102 0.91v1.548H3.597v10.772h8.823V3.9h-2.176z m-0.81 0H6.547v-1.593h2.887v1.593z m3.779 10.754h1.184c0.814-0.002 1.605-0.602 1.603-1.648 0 0 0.003-7.471 0-7.494 0.003-0.926-0.77-1.63-1.602-1.631h-1.184v10.772z"></path></g><g id="SvgjsG1723"><path d="M15.964 4.774l-1.312 10.327H10.223L8.916 4.774h5.408L15.395 1.04 16 1.21l-1.024 3.562 0.988 0.002zM8.29 10.788s0.166-1.502-2.131-1.502H2.5c-2.293 0-2.131 1.502-2.132 1.502h7.922zM0.368 13.595s-0.162 1.506 2.132 1.506h3.659c2.297 0 2.131-1.506 2.131-1.506H0.369z m7.578-0.727a0.68 0.68 0 0 0 0.68-0.68c0-0.372-0.304-0.676-0.68-0.676H0.68C0.306 11.512 0 11.816 0 12.188a0.682 0.682 0 0 0 0.68 0.68h7.266z"></path></g><g id="SvgjsG1698"><path d="M15.819 2.872L8 9.063 0.182 2.872z m0 8.863L11.116 8l4.703-3.734zM0.161 4.266l4.702 3.734L0.161 11.735z"></path><path d="M10.255 8.663L8.011 10.434 5.766 8.663 0.182 13.068h15.656z"></path></g><g id="SvgjsG1699"><path d="M3.044 12.188V8.93c0-2.836 2.475-5.244 5.463-5.245 3.022-0.004 5.465 2.352 5.465 5.245v3.258h1.351V8.93C15.332 5.276 12.27 2.325 8.51 2.325 4.777 2.325 1.689 5.333 1.689 8.93v3.258h1.355z"></path><path d="M5.463 14.702l-1.781 0.006V9.593h1.785c0.921 2.372 0 5.111 0 5.111m6.049-5.109H13.298V14.702l-1.783 0.006c-0.921-2.373 0-5.113 0-5.113"></path></g><g id="SvgjsG1704"><path d="M11.221 11.657c-2.056 2.056-5.389 2.055-7.444 0-2.056-2.056-2.056-5.389 0-7.444 0.976-0.977 2.617-2.176 5.214-2.176 4.749 0 6.224-1.252 6.224-1.252 0 5.707-1.938 8.816-3.994 10.872z"></path><path d="M3.223 11.626L2.552 10.224l6.437-4.363z"></path><path d="M8.989 5.861l1.15 1.15-8.203 8.203-1.151-1.15z"></path></g><g id="SvgjsG1710"><path d="M15.769 13.134v-0.004s-3.022-3.019-3.024-3.02a0.605 0.605 0 0 0-0.858 0.002L10.496 11.509c-0.541 0.541-1.238 0.061-2.577-1.031-0.886-0.722-1.905-1.693-2.788-2.788-0.62-0.768-1.168-1.575-0.602-2.141 0.001-0.001 1.397-1.393 1.398-1.395l0.001-0.003c0.251-0.25 0.226-0.634-0.003-0.862v-0.004L2.813 0.177c-0.24-0.239-0.623-0.234-0.858 0.002L0.553 1.58C-0.024 2.303-1.307 5.747 4.194 11.385c5.795 5.94 9.534 4.669 10.177 3.999 0 0 1.4-1.383 1.4-1.384l0.001-0.003c0.251-0.251 0.225-0.635-0.002-0.864z"></path></g><g id="SvgjsG1713"><path d="M11.675 13.031H3.563V2.436h8.112v10.595z m-4.054 1.54a0.457 0.457 0 1 1 0-0.912 0.457 0.457 0 0 1 0 0.912zM6.921 1.287h1.395c0.196 0 0.196 0.356 0 0.356h-1.397c-0.199 0-0.199-0.356 0-0.356zM11.495 0.409H3.744C3.413 0.409 3.143 0.761 3.143 1.191V14.276c0 0.427 0.267 0.779 0.601 0.778h7.751c0.332 0 0.604-0.35 0.605-0.778V1.191c0-0.432-0.272-0.782-0.605-0.782z" fill-rule="evenodd"></path></g><g id="SvgjsG1721"><path d="M11.46 4.548H9.536l1.547-0.623a0.324 0.324 0 0 0-0.24-0.604l-1.743 0.706 1.423-1.412a0.331 0.331 0 0 0 0.096-0.231 0.324 0.324 0 0 0-0.551-0.231l-2.002 1.991 0.009-2.827a0.32 0.32 0 0 0-0.32-0.32H7.751c-0.178 0-0.32 0.142-0.323 0.32l-0.009 2.827c-0.645-0.649-1.796-1.813-1.796-1.813a0.325 0.325 0 0 0-0.459 0 0.325 0.325 0 0 0 0 0.458l1.25 1.263-1.801-0.72a0.324 0.324 0 1 0-0.238 0.6l1.55 0.619H4.066a0.484 0.484 0 0 0-0.486 0.484v10.311c0 0.267 0.217 0.48 0.486 0.48h7.395c0.267 0 0.48-0.213 0.48-0.48v-10.311c0-0.267-0.213-0.484-0.48-0.484z m-0.484 4.312H8.075v-3.342h2.901v3.342z m-3.548 0h-2.88v-3.342h2.88v3.342z m-2.88 0.648h2.88v5.347h-2.88V9.508z m3.527 0h2.901v5.347H8.075V9.508z" fill-rule="evenodd"></path></g><g id="SvgjsG1714"><path d="M12.856 11.744c1.338 0 2.427-1.084 2.426-2.424 0-1.343-1.088-2.429-2.426-2.429-1.345 0-2.429 1.086-2.429 2.429 0 1.34 1.084 2.424 2.429 2.424m-9.684 0c1.338 0 2.429-1.084 2.429-2.424 0-1.343-1.09-2.429-2.429-2.429-1.342 0-2.429 1.086-2.428 2.429 0 1.34 1.086 2.424 2.428 2.424M9.832 6.912H6.203v2.42H9.832V6.912zM12.231 4.345h-8.397v1.567h8.397V4.346z m0.969 1.565H16v6.602H0v-6.602h2.866l0.005-1.422c0-0.534 0.429-0.968 0.963-0.968H12.229c0.53 0 0.963 0.433 0.963 0.968l0.009 1.422z"></path></g><g id="SvgjsG1706"><path d="M6.846 8.046l0.633 0.934h1.178l0.544-0.934-0.573-0.995h-1.181l-0.601 0.995zM7.331 15.562V13.449l-1.181 0.664-0.601-0.345V13.024l1.751-0.995V10.64l-1.271 0.816v-1.471l-1.214 0.7v1.994l-0.664 0.412-0.561-0.372V11.382L1.747 12.422 0.96 12.091V11.248l1.934-1.058-1.21-0.608v-0.771l0.687-0.376 1.735 1.022 1.206-0.696-0.03-0.022-1.232-0.707 1.197-0.742-1.201-0.696L2.311 7.614l-0.651-0.324v-0.769l1.174-0.66L0.96 4.844v-0.844l0.72-0.371 1.847 1.067v-1.36l0.557-0.375 0.682 0.393-0.004 2.035 1.241 0.709-0.005-1.438 1.301 0.7v-1.388L5.549 2.974v-0.738l0.601-0.348 1.181 0.664V0.443L8.006 0l0.682 0.443v2.109l1.224-0.678 0.615 0.407v0.664L8.715 3.972v1.388l1.239-0.755v1.511l1.277-0.696v-2.176l0.615-0.286 0.646 0.286v1.392l1.901-1.027 0.664 0.405v0.787l-1.856 1.055 1.161 0.651v0.751L13.76 7.592l-1.782-1.053-1.232 0.782 1.192 0.743-1.228 0.706 1.268 0.664L13.76 8.439l0.572 0.405v0.718L13.214 10.19l1.781 1.058v0.83l-0.754 0.344-1.749-0.995v1.317l-0.628 0.351-0.615-0.351V10.745l-1.295-0.737v1.388L8.715 10.64v1.389L10.466 13.024v0.787l-0.605 0.302-1.173-0.664v2.113L8.006 16l-0.675-0.438z"></path></g><g id="SvgjsG1712"><path d="M14.555 6.667L13.239 3.302c-0.243-0.635-0.779-1.18-1.791-1.177H9.598v-0.88c-0.004-0.35-0.194-0.528-0.505-0.525h-2.157C6.622 0.717 6.432 0.895 6.432 1.245v0.88h-1.88c-1.007-0.003-1.543 0.542-1.791 1.177L1.445 6.667c-0.518 0.062-1.44 0.668-1.445 1.811V12.752h1.286v1.366c-0.003 1.675 2.398 1.655 2.395 0V12.752h8.638v1.366c0.003 1.655 2.404 1.675 2.405 0V12.752H16V8.478c0.002-1.144-0.922-1.749-1.445-1.811z m-12.032 3.473c-0.614 0-1.111-0.507-1.108-1.128-0.003-0.629 0.494-1.136 1.108-1.138 0.611 0.002 1.107 0.509 1.108 1.138-0.001 0.621-0.498 1.128-1.108 1.128z m5.482-3.552H2.81l0.989-2.603c0.121-0.37 0.307-0.637 0.743-0.643h6.926c0.43 0.006 0.616 0.274 0.742 0.643L13.2 6.588H8.005z m5.481 3.552c-0.616 0-1.112-0.507-1.108-1.128-0.004-0.629 0.493-1.136 1.109-1.138 0.61 0.002 1.106 0.509 1.108 1.138-0.003 0.621-0.499 1.128-1.108 1.128z"></path></g><g id="SvgjsG1720"><path d="M0.267 14.413h15.466V16H0.267z m0.632-1.535h13.998v0.872H0.899z m1.139-7.74h2.352v7.056h-2.352z m4.693 0h2.352v7.056h-2.352z m4.513 0h2.352v7.056H11.244zM0 3.595L8 0l8 3.595-0.007 0.927L0 4.535z"></path></g><g id="SvgjsG1708"><path d="M8.312 8.242l0 0.521c0.492-0.069 0.443-0.509 0-0.52v-0.001z m-0.51-0.627V7.155c-0.365 0.064-0.358 0.454 0 0.46z"></path><path d="M8.055 5.946c-1.128 0-2.044 0.915-2.044 2.043 0 1.129 0.915 2.044 2.045 2.044 1.129 0 2.043-0.915 2.043-2.044 0-1.128-0.915-2.043-2.043-2.043l-0.001 0z m0.251 3.336v0.364h-0.507v-0.37c-0.29-0.043-0.822-0.323-0.855-0.924h0.534c0.034 0.154 0.078 0.34 0.321 0.409l-0.001-0.605c-0.334-0.048-0.814-0.194-0.814-0.73 0-0.602 0.666-0.789 0.813-0.789v-0.364h0.502v0.364c0.338 0.02 0.83 0.302 0.829 0.84h-0.528c-0.014-0.16-0.137-0.317-0.296-0.327v0.554c0.403 0.041 0.877 0.195 0.877 0.738 0 0.473-0.475 0.818-0.877 0.84h0.002z"></path><path d="M0 11.93h16V4H0v7.93z m1.508-1.508V5.508h12.984V10.422H1.508z"></path></g><g id="SvgjsG1701"><path d="M3.755 2.315h2.494v11.128h-2.494zM13.507 0.537H16v11.261h-2.493z"></path><path d="M4.451 5.556l-0.696-3.24L16 0v3.167z"></path><path d="M0 13.443a3.124 2.606 0 1 0 6.249 0 3.124 2.606 0 1 0-6.249 0"></path><path d="M9.751 11.798a3.124 2.606 0 1 0 6.249 0 3.124 2.606 0 1 0-6.249 0"></path></g><g id="SvgjsG1715"><path d="M7.634 3.849c0.822 0 1.487-0.665 1.487-1.485S8.456 0.88 7.634 0.88c-0.821 0-1.487 0.664-1.488 1.484s0.666 1.485 1.488 1.485zM12.166 13.885H0.308c-0.334 0-0.3 0.262-0.3 0.262v0.437s-0.03 0.568 0.553 0.568h14.848c0.587 0 0.555-0.555 0.555-0.555v-1.209s-0.05-0.383-0.5-0.383h-1.448c-0.496 0-0.906 0.88-1.851 0.88z m1.153-2.681c0 0.738 0.6 1.337 1.34 1.336 0.739 0 1.341-0.599 1.341-1.336 0-0.74-0.602-1.338-1.341-1.338-0.74 0-1.34 0.597-1.34 1.338zM8.939 8.653a0.953 0.953 0 0 1-0.573 0.596L7.173 9.691l0.44 0.437h2.015l-0.002-3.083-0.674 1.59c-0.003 0.008-0.009 0.012-0.013 0.018z"></path><path d="M11.832 10.861H7.667l-1.004-0.981-0.699 0.258c-0.518 0.185-1.15-0.098-1.345-0.613-0.115-0.32-0.099-0.677 0.093-0.937-0.086-0.004-2.526 0-2.526 0-0.406 0-0.736 0.326-0.736 0.731 0 0.406 0.33 0.723 0.736 0.723h2.484l0.986 1.491-5.087 0.409A0.734 0.734 0 0 0 0 12.657a0.734 0.734 0 0 0 0.733 0.736l5.707 0a1.044 1.044 0 0 1-0.159-0.549 1.054 1.054 0 0 1 1.053-1.054h2.283l1.852-0.386 0.102 0.491-1.901 0.397H7.335a0.551 0.551 0 0 0-0.551 0.552 0.55 0.55 0 0 0 0.54 0.549l4.518 0.001c0.699-0.005 1.26-0.569 1.26-1.266a1.267 1.267 0 0 0-1.27-1.267z"></path><path d="M5.876 9.678a0.582 0.582 0 0 1-0.767-0.299 0.582 0.582 0 0 1 0.299-0.768l2.12-0.796 0.656-1.563-0.427-0.158L7.2 7.433l-1.614 0.595V6.392l-1.578 1.723-1.786-0.002s3.125-3.426 3.223-3.528c0.13-0.129 0.426-0.342 0.984-0.341h2.006c1.14 0 1.36 1.137 1.127 1.724L8.512 8.513a0.591 0.591 0 0 1-0.338 0.319l-2.298 0.846z"></path></g><g id="SvgjsG1725"><use xlink:href="#SvgjsG1698" transform="translate(0, 0) scale(2)" fill="#0f457b"></use><use xlink:href="#SvgjsG1699" transform="translate(0, 48) scale(2)" fill="#0f457b"></use><use xlink:href="#SvgjsG1700" transform="translate(0, 96) scale(2)" fill="#0f457b"></use><use xlink:href="#SvgjsG1701" transform="translate(0, 144) scale(2)" fill="#0f457b"></use><use xlink:href="#SvgjsG1702" transform="translate(0, 192) scale(2)" fill="#0f457b"></use><use xlink:href="#SvgjsG1703" transform="translate(0, 240) scale(2)" fill="#0f457b"></use><use xlink:href="#SvgjsG1704" transform="translate(0, 288) scale(2)" fill="#0f457b"></use><use xlink:href="#SvgjsG1700" transform="translate(0, 336) scale(2)" fill="#0f457b"></use><use xlink:href="#SvgjsG1705" transform="translate(0, 384) scale(2)" fill="#0f457b"></use><use xlink:href="#SvgjsG1703" transform="translate(0, 432) scale(2)" fill="#0f457b"></use><use xlink:href="#SvgjsG1706" transform="translate(48, 0) scale(2)" fill="#0f457b"></use><use xlink:href="#SvgjsG1707" transform="translate(48, 48) scale(2)" fill="#0f457b"></use><use xlink:href="#SvgjsG1708" transform="translate(48, 96) scale(2)" fill="#0f457b"></use><use xlink:href="#SvgjsG1709" transform="translate(48, 144) scale(2)" fill="#0f457b"></use><use xlink:href="#SvgjsG1710" transform="translate(48, 192) scale(2)" fill="#0f457b"></use><use xlink:href="#SvgjsG1711" transform="translate(48, 240) scale(2)" fill="#0f457b"></use><use xlink:href="#SvgjsG1703" transform="translate(48, 288) scale(2)" fill="#0f457b"></use><use xlink:href="#SvgjsG1711" transform="translate(48, 336) scale(2)" fill="#0f457b"></use><use xlink:href="#SvgjsG1712" transform="translate(48, 384) scale(2)" fill="#0f457b"></use><use xlink:href="#SvgjsG1713" transform="translate(48, 432) scale(2)" fill="#0f457b"></use><use xlink:href="#SvgjsG1714" transform="translate(96, 0) scale(2)" fill="#0f457b"></use><use xlink:href="#SvgjsG1715" transform="translate(96, 48) scale(2)" fill="#0f457b"></use><use xlink:href="#SvgjsG1716" transform="translate(96, 96) scale(2)" fill="#0f457b"></use><use xlink:href="#SvgjsG1717" transform="translate(96, 144) scale(2)" fill="#0f457b"></use><use xlink:href="#SvgjsG1712" transform="translate(96, 192) scale(2)" fill="#0f457b"></use><use xlink:href="#SvgjsG1707" transform="translate(96, 240) scale(2)" fill="#0f457b"></use><use xlink:href="#SvgjsG1718" transform="translate(96, 288) scale(2)" fill="#0f457b"></use><use xlink:href="#SvgjsG1700" transform="translate(96, 336) scale(2)" fill="#0f457b"></use><use xlink:href="#SvgjsG1699" transform="translate(96, 384) scale(2)" fill="#0f457b"></use><use xlink:href="#SvgjsG1718" transform="translate(96, 432) scale(2)" fill="#0f457b"></use><use xlink:href="#SvgjsG1719" transform="translate(144, 0) scale(2)" fill="#0f457b"></use><use xlink:href="#SvgjsG1720" transform="translate(144, 48) scale(2)" fill="#0f457b"></use><use xlink:href="#SvgjsG1712" transform="translate(144, 96) scale(2)" fill="#0f457b"></use><use xlink:href="#SvgjsG1707" transform="translate(144, 144) scale(2)" fill="#0f457b"></use><use xlink:href="#SvgjsG1721" transform="translate(144, 192) scale(2)" fill="#0f457b"></use><use xlink:href="#SvgjsG1705" transform="translate(144, 240) scale(2)" fill="#0f457b"></use><use xlink:href="#SvgjsG1720" transform="translate(144, 288) scale(2)" fill="#0f457b"></use><use xlink:href="#SvgjsG1712" transform="translate(144, 336) scale(2)" fill="#0f457b"></use><use xlink:href="#SvgjsG1719" transform="translate(144, 384) scale(2)" fill="#0f457b"></use><use xlink:href="#SvgjsG1702" transform="translate(144, 432) scale(2)" fill="#0f457b"></use><use xlink:href="#SvgjsG1720" transform="translate(192, 0) scale(2)" fill="#0f457b"></use><use xlink:href="#SvgjsG1701" transform="translate(192, 48) scale(2)" fill="#0f457b"></use><use xlink:href="#SvgjsG1700" transform="translate(192, 96) scale(2)" fill="#0f457b"></use><use xlink:href="#SvgjsG1719" transform="translate(192, 144) scale(2)" fill="#0f457b"></use><use xlink:href="#SvgjsG1701" transform="translate(192, 192) scale(2)" fill="#0f457b"></use><use xlink:href="#SvgjsG1715" transform="translate(192, 240) scale(2)" fill="#0f457b"></use><use xlink:href="#SvgjsG1702" transform="translate(192, 288) scale(2)" fill="#0f457b"></use><use xlink:href="#SvgjsG1709" transform="translate(192, 336) scale(2)" fill="#0f457b"></use><use xlink:href="#SvgjsG1712" transform="translate(192, 384) scale(2)" fill="#0f457b"></use><use xlink:href="#SvgjsG1698" transform="translate(192, 432) scale(2)" fill="#0f457b"></use><use xlink:href="#SvgjsG1699" transform="translate(240, 0) scale(2)" fill="#0f457b"></use><use xlink:href="#SvgjsG1700" transform="translate(240, 48) scale(2)" fill="#0f457b"></use><use xlink:href="#SvgjsG1700" transform="translate(240, 96) scale(2)" fill="#0f457b"></use><use xlink:href="#SvgjsG1719" transform="translate(240, 144) scale(2)" fill="#0f457b"></use><use xlink:href="#SvgjsG1722" transform="translate(240, 192) scale(2)" fill="#0f457b"></use><use xlink:href="#SvgjsG1705" transform="translate(240, 240) scale(2)" fill="#0f457b"></use><use xlink:href="#SvgjsG1716" transform="translate(240, 288) scale(2)" fill="#0f457b"></use><use xlink:href="#SvgjsG1723" transform="translate(240, 336) scale(2)" fill="#0f457b"></use><use xlink:href="#SvgjsG1704" transform="translate(240, 384) scale(2)" fill="#0f457b"></use><use xlink:href="#SvgjsG1698" transform="translate(240, 432) scale(2)" fill="#0f457b"></use><use xlink:href="#SvgjsG1702" transform="translate(288, 0) scale(2)" fill="#0f457b"></use><use xlink:href="#SvgjsG1717" transform="translate(288, 48) scale(2)" fill="#0f457b"></use><use xlink:href="#SvgjsG1709" transform="translate(288, 96) scale(2)" fill="#0f457b"></use><use xlink:href="#SvgjsG1707" transform="translate(288, 144) scale(2)" fill="#0f457b"></use><use xlink:href="#SvgjsG1712" transform="translate(288, 192) scale(2)" fill="#0f457b"></use><use xlink:href="#SvgjsG1719" transform="translate(288, 240) scale(2)" fill="#0f457b"></use><use xlink:href="#SvgjsG1723" transform="translate(288, 288) scale(2)" fill="#0f457b"></use><use xlink:href="#SvgjsG1705" transform="translate(288, 336) scale(2)" fill="#0f457b"></use><use xlink:href="#SvgjsG1724" transform="translate(288, 384) scale(2)" fill="#0f457b"></use><use xlink:href="#SvgjsG1721" transform="translate(288, 432) scale(2)" fill="#0f457b"></use><use xlink:href="#SvgjsG1707" transform="translate(336, 0) scale(2)" fill="#0f457b"></use><use xlink:href="#SvgjsG1699" transform="translate(336, 48) scale(2)" fill="#0f457b"></use><use xlink:href="#SvgjsG1711" transform="translate(336, 96) scale(2)" fill="#0f457b"></use><use xlink:href="#SvgjsG1724" transform="translate(336, 144) scale(2)" fill="#0f457b"></use><use xlink:href="#SvgjsG1715" transform="translate(336, 192) scale(2)" fill="#0f457b"></use><use xlink:href="#SvgjsG1713" transform="translate(336, 240) scale(2)" fill="#0f457b"></use><use xlink:href="#SvgjsG1719" transform="translate(336, 288) scale(2)" fill="#0f457b"></use><use xlink:href="#SvgjsG1721" transform="translate(336, 336) scale(2)" fill="#0f457b"></use><use xlink:href="#SvgjsG1718" transform="translate(336, 384) scale(2)" fill="#0f457b"></use><use xlink:href="#SvgjsG1704" transform="translate(336, 432) scale(2)" fill="#0f457b"></use><use xlink:href="#SvgjsG1701" transform="translate(384, 0) scale(2)" fill="#0f457b"></use><use xlink:href="#SvgjsG1701" transform="translate(384, 48) scale(2)" fill="#0f457b"></use><use xlink:href="#SvgjsG1698" transform="translate(384, 96) scale(2)" fill="#0f457b"></use><use xlink:href="#SvgjsG1704" transform="translate(384, 144) scale(2)" fill="#0f457b"></use><use xlink:href="#SvgjsG1698" transform="translate(384, 192) scale(2)" fill="#0f457b"></use><use xlink:href="#SvgjsG1719" transform="translate(384, 240) scale(2)" fill="#0f457b"></use><use xlink:href="#SvgjsG1711" transform="translate(384, 288) scale(2)" fill="#0f457b"></use><use xlink:href="#SvgjsG1704" transform="translate(384, 336) scale(2)" fill="#0f457b"></use><use xlink:href="#SvgjsG1704" transform="translate(384, 384) scale(2)" fill="#0f457b"></use><use xlink:href="#SvgjsG1707" transform="translate(384, 432) scale(2)" fill="#0f457b"></use><use xlink:href="#SvgjsG1702" transform="translate(432, 0) scale(2)" fill="#0f457b"></use><use xlink:href="#SvgjsG1710" transform="translate(432, 48) scale(2)" fill="#0f457b"></use><use xlink:href="#SvgjsG1709" transform="translate(432, 96) scale(2)" fill="#0f457b"></use><use xlink:href="#SvgjsG1714" transform="translate(432, 144) scale(2)" fill="#0f457b"></use><use xlink:href="#SvgjsG1704" transform="translate(432, 192) scale(2)" fill="#0f457b"></use><use xlink:href="#SvgjsG1702" transform="translate(432, 240) scale(2)" fill="#0f457b"></use><use xlink:href="#SvgjsG1704" transform="translate(432, 288) scale(2)" fill="#0f457b"></use><use xlink:href="#SvgjsG1717" transform="translate(432, 336) scale(2)" fill="#0f457b"></use><use xlink:href="#SvgjsG1717" transform="translate(432, 384) scale(2)" fill="#0f457b"></use><use xlink:href="#SvgjsG1708" transform="translate(432, 432) scale(2)" fill="#0f457b"></use></g></defs></svg>