<svg width="40" height="40" viewBox="0 0 40 40" fill="none" xmlns="http://www.w3.org/2000/svg">
<rect width="40" height="40" rx="8" fill="#D1FADF"/>
<path d="M13.85 18.8L16.4 23.75L21.15 21.8L23.35 15.45L15.95 15.85L13.85 18.8Z" fill="#A3420B"/>
<path d="M15.5 22.1C14.4657 22.1 13.4737 22.5109 12.7423 23.2423C12.0109 23.9737 11.6 24.9656 11.6 26C11.6 27.0343 12.0109 28.0263 12.7423 28.7577C13.4737 29.4891 14.4657 29.9 15.5 29.9C16.5344 29.9 17.5263 29.4891 18.2577 28.7577C18.9891 28.0263 19.4 27.0343 19.4 26C19.4 24.9656 18.9891 23.9737 18.2577 23.2423C17.5263 22.5109 16.5344 22.1 15.5 22.1Z" fill="#125D56"/>
<path d="M15.5 21.5C13 21.5 11 23.5 11 26C11 28.5 13 30.5 15.5 30.5C18 30.5 20 28.5 20 26C20 23.5 18 21.5 15.5 21.5ZM15.5 29.5C13.55 29.5 12 27.95 12 26C12 24.05 13.55 22.5 15.5 22.5C17.45 22.5 19 24.05 19 26C19 27.95 17.45 29.5 15.5 29.5Z" fill="#15B79E"/>
<path d="M15 24.5H16V28.5H15V24.5Z" fill="#90A4AE"/>
<path d="M14.45 26C14.95 26.95 16.05 27.35 17 26.85L25.25 22.6C25.75 22.35 26.1 22 26.35 21.65C27.2 20.05 29.15 16.3 30.45 13.05L21.35 17.4L18.95 21L15.55 22.8C14.25 23.45 13.85 24.9 14.45 26Z" fill="#B5683C"/>
<path d="M23.1 9.5L14.85 12.65C14.5 12.75 14.1 13.15 13.75 13.5L10.95 17.25C10.45 18 10.35 18.95 10.7 19.8C10.9 20.3 11.55 21.5 12.25 22.85C13.05 22 14.2 21.5 15.5 21.5C15.7 21.5 15.95 21.5 16.15 21.55L15.1 19.45L17.4 17.4H21.4C21.4 17.4 29.15 16.3 30.5 13.05L23.1 9.5Z" fill="#B5683C"/>
<path d="M17.1 26C16.45 26.3 15.7 26 15.45 25.35C15.15 24.7 15.45 23.95 16.1 23.7C16.7 23.4 17.7 25.7 17.1 26Z" fill="#FFCDD2"/>
</svg>
