<svg width="40" height="40" viewBox="0 0 40 40" fill="none" xmlns="http://www.w3.org/2000/svg">
<rect width="40" height="40" rx="8" fill="#F5F5F5"/>
<path d="M20 30C25.5228 30 30 25.5228 30 20C30 14.4772 25.5228 10 20 10C14.4772 10 10 14.4772 10 20C10 25.5228 14.4772 30 20 30Z" fill="url(#paint0_linear_716_47875)"/>
<path d="M20 28.5C24.6944 28.5 28.5 24.6944 28.5 20C28.5 15.3056 24.6944 11.5 20 11.5C15.3056 11.5 11.5 15.3056 11.5 20C11.5 24.6944 15.3056 28.5 20 28.5Z" fill="#F5BE00"/>
<path d="M20.1672 22.0696C21.2131 22.0696 21.3317 21.2543 21.3317 21.0397H23.0653C23.0653 22.7476 21.4543 23.427 20.8391 23.5027V25H19.5591V23.5093C18.2353 23.3376 17 22.2559 17 20.0673V19.888C17 17.3648 18.6199 16.5332 19.5591 16.4331V15H20.8386V16.4393C22.59 16.7925 23.0636 18.0712 23.0649 19.0883H21.3312C21.3268 18.9218 21.2396 17.8791 20.1539 17.8791C19.1205 17.8791 18.8487 18.7598 18.8487 19.888V20.0673C18.8492 21.9071 19.6303 22.0696 20.1672 22.0696Z" fill="#FEE119"/>
<defs>
<linearGradient id="paint0_linear_716_47875" x1="13.1365" y1="13.136" x2="27.056" y2="27.0565" gradientUnits="userSpaceOnUse">
<stop stop-color="#FEDE00"/>
<stop offset="1" stop-color="#FFD000"/>
</linearGradient>
</defs>
</svg>
