<svg width="40" height="40" viewBox="0 0 40 40" fill="none" xmlns="http://www.w3.org/2000/svg">
<rect width="40" height="40" rx="8" fill="#D1E0FF"/>
<path d="M11.891 28.109C13.746 29.964 16.7535 29.964 18.6085 28.109C19.475 27.2425 21.242 25.4755 22.1085 24.609C23.9635 22.754 23.9635 19.7465 22.1085 17.8915C20.2535 16.0365 17.246 16.0365 15.391 17.8915C14.5245 18.758 12.7575 20.525 11.891 21.3915C10.0365 23.246 10.0365 26.254 11.891 28.109ZM13.659 23.159C14.169 22.649 16.7775 20.0405 17.159 19.659C18.0375 18.7805 19.4625 18.7805 20.341 19.659C21.2195 20.5375 21.2195 21.9625 20.341 22.841C19.9595 23.2225 17.351 25.831 16.841 26.341C15.9625 27.2195 14.5375 27.2195 13.659 26.341C12.7805 25.4625 12.7805 24.0375 13.659 23.159Z" fill="#0078D4"/>
<path opacity="0.05" d="M19.8045 19.2545C19.8045 19.2545 19.5 18.5 20.1895 17.689L20.874 17.004C19.2915 16.2125 17.363 16.3615 15.911 17.448C15.5 19 16.0985 20.7195 16.0985 20.7195C16.6185 20.1995 17.0345 19.7835 17.159 19.659C17.879 18.9395 18.9255 18.8065 19.8045 19.2545Z" fill="black"/>
<path opacity="0.07" d="M19.4135 19.0965C19.3725 18.7645 19.3245 18.0845 19.9245 17.424C19.9595 17.389 20.3845 16.954 20.496 16.8425C19.175 16.288 17.6515 16.3945 16.4 17.1275C15.9755 18.4165 16.2415 19.8885 16.4 20.4185C16.7715 20.047 17.062 19.7565 17.1595 19.659C17.774 19.044 18.627 18.857 19.4135 19.0965Z" fill="black"/>
<path d="M28.109 11.891C26.254 10.036 23.2465 10.036 21.3915 11.891C20.525 12.7575 18.758 14.5245 17.8915 15.391C16.0365 17.246 16.0365 20.2535 17.8915 22.1085C19.7465 23.9635 22.754 23.9635 24.609 22.1085C25.4755 21.242 27.2425 19.475 28.109 18.6085C29.9635 16.754 29.9635 13.746 28.109 11.891ZM26.341 16.841C25.831 17.351 23.2225 19.9595 22.841 20.341C21.9625 21.2195 20.5375 21.2195 19.659 20.341C18.7805 19.4625 18.7805 18.0375 19.659 17.159C20.0405 16.7775 22.649 14.169 23.159 13.659C24.0375 12.7805 25.4625 12.7805 26.341 13.659C27.2195 14.5375 27.2195 15.9625 26.341 16.841Z" fill="#1B9DE2"/>
<path opacity="0.05" d="M20.193 20.738C20.193 20.738 20.5 21.5 19.8105 22.311L19.126 22.996C20.7085 23.7875 22.637 23.6385 24.089 22.552C24.5 21 23.9015 19.2805 23.9015 19.2805C23.3815 19.8005 22.9655 20.2165 22.841 20.341C22.121 21.0605 21.045 21.1975 20.193 20.738Z" fill="black"/>
<path opacity="0.07" d="M20.594 20.903C20.635 21.235 20.6755 21.9155 20.0755 22.576C20.0405 22.611 19.6155 23.036 19.504 23.1475C20.825 23.702 22.363 23.596 23.602 22.8335C24.0265 21.5445 23.759 20.111 23.6 19.5815C23.2285 19.953 22.938 20.2435 22.8405 20.341C22.226 20.956 21.3365 21.1355 20.594 20.903Z" fill="black"/>
<path d="M20.341 19.659C21.2195 20.5375 21.2195 21.9625 20.341 22.841C19.9595 23.2225 17.351 25.831 16.841 26.341L18.609 28.109C19.4755 27.2425 21.2425 25.4755 22.109 24.609C23.964 22.754 23.964 19.7465 22.109 17.8915L20.341 19.659Z" fill="#0078D4"/>
</svg>
