<svg width="40" height="41" viewBox="0 0 40 41" fill="none" xmlns="http://www.w3.org/2000/svg">
<rect y="0.793945" width="40" height="40" rx="20" fill="#E5E5E5"/>
<path d="M14 28.881H16.6103C16.9506 28.881 17.2889 28.9215 17.6188 29.0025L20.3769 29.6727C20.9753 29.8185 21.5988 29.8327 22.2035 29.7152L25.253 29.122C26.0585 28.965 26.7996 28.5793 27.3803 28.0143L29.5379 25.9156C30.154 25.3172 30.154 24.3463 29.5379 23.7469C28.9832 23.2073 28.1047 23.1465 27.4771 23.6042L24.9626 25.4387C24.6025 25.7019 24.1643 25.8437 23.7137 25.8437H21.2855L22.8311 25.8436C23.7022 25.8436 24.4079 25.1572 24.4079 24.3098V24.003C24.4079 23.2993 23.9156 22.6858 23.2141 22.5157L20.8286 21.9356C20.4404 21.8414 20.0428 21.7938 19.6431 21.7938C18.6783 21.7938 16.9319 22.5927 16.9319 22.5927L14 23.8187M10 23.3938L10 29.1938C10 29.7539 10 30.0339 10.109 30.2478C10.2049 30.436 10.3578 30.589 10.546 30.6848C10.7599 30.7938 11.0399 30.7938 11.6 30.7938H12.4C12.9601 30.7938 13.2401 30.7938 13.454 30.6848C13.6422 30.589 13.7951 30.436 13.891 30.2478C14 30.0339 14 29.7539 14 29.1938V23.3938C14 22.8338 14 22.5538 13.891 22.3399C13.7951 22.1517 13.6422 21.9987 13.454 21.9028C13.2401 21.7938 12.9601 21.7938 12.4 21.7938H11.6C11.0399 21.7938 10.7599 21.7938 10.546 21.9028C10.3578 21.9987 10.2049 22.1517 10.109 22.3398C10 22.5538 10 22.8338 10 23.3938ZM25.1914 12.3861C24.5946 11.1372 23.2186 10.4756 21.8804 11.1142C20.5423 11.7528 19.9722 13.2672 20.5325 14.5967C20.8787 15.4183 21.8707 17.0138 22.5781 18.1129C22.8394 18.5189 22.9701 18.722 23.161 18.8408C23.3247 18.9427 23.5297 18.9976 23.7224 18.9912C23.9471 18.9838 24.1618 18.8733 24.5911 18.6523C25.7532 18.0542 27.4101 17.1684 28.1208 16.63C29.2707 15.7588 29.5556 14.1574 28.6947 12.9401C27.8337 11.7227 26.3327 11.603 25.1914 12.3861Z" stroke="#424242" stroke-width="1.6" stroke-linecap="round" stroke-linejoin="round"/>
</svg>
