<svg width="20" height="20" viewBox="0 0 20 20" fill="none" xmlns="http://www.w3.org/2000/svg">
<path d="M4.16675 11.9051C2.62395 12.5857 1.66675 13.5341 1.66675 14.5832C1.66675 16.6542 5.39771 18.3332 10.0001 18.3332C14.6025 18.3332 18.3334 16.6542 18.3334 14.5832C18.3334 13.5341 17.3762 12.5857 15.8334 11.9051M15.0001 6.6665C15.0001 10.0529 11.2501 11.6665 10.0001 14.1665C8.75008 11.6665 5.00008 10.0529 5.00008 6.6665C5.00008 3.90508 7.23866 1.6665 10.0001 1.6665C12.7615 1.6665 15.0001 3.90508 15.0001 6.6665ZM10.8334 6.6665C10.8334 7.12674 10.4603 7.49984 10.0001 7.49984C9.53984 7.49984 9.16675 7.12674 9.16675 6.6665C9.16675 6.20627 9.53984 5.83317 10.0001 5.83317C10.4603 5.83317 10.8334 6.20627 10.8334 6.6665Z" stroke="black" stroke-width="1.6" stroke-linecap="round" stroke-linejoin="round"/>
</svg>
