<svg width="40" height="40" viewBox="0 0 40 40" fill="none" xmlns="http://www.w3.org/2000/svg">
<rect width="40" height="40" rx="8" fill="#FEFBE8"/>
<path d="M30 18V14.5C30 13.4 29.1 12.5 28 12.5H25.25C25.25 12.9 24.9 13.25 24.5 13.25C24.1 13.25 23.75 12.9 23.75 12.5H12C10.9 12.5 10 13.4 10 14.5V18C11.1 18 12 18.9 12 20C12 21.1 11.1 22 10 22V25.5C10 26.6 10.9 27.5 12 27.5H23.75C23.75 27.1 24.1 26.75 24.5 26.75C24.9 26.75 25.25 27.1 25.25 27.5H28C29.1 27.5 30 26.6 30 25.5V22C28.9 22 28 21.1 28 20C28 18.9 28.9 18 30 18ZM24.5 25.75C24.1 25.75 23.75 25.4 23.75 25C23.75 24.6 24.1 24.25 24.5 24.25C24.9 24.25 25.25 24.6 25.25 25C25.25 25.4 24.9 25.75 24.5 25.75ZM24.5 23.25C24.1 23.25 23.75 22.9 23.75 22.5C23.75 22.1 24.1 21.75 24.5 21.75C24.9 21.75 25.25 22.1 25.25 22.5C25.25 22.9 24.9 23.25 24.5 23.25ZM24.5 20.75C24.1 20.75 23.75 20.4 23.75 20C23.75 19.6 24.1 19.25 24.5 19.25C24.9 19.25 25.25 19.6 25.25 20C25.25 20.4 24.9 20.75 24.5 20.75ZM24.5 18.25C24.1 18.25 23.75 17.9 23.75 17.5C23.75 17.1 24.1 16.75 24.5 16.75C24.9 16.75 25.25 17.1 25.25 17.5C25.25 17.9 24.9 18.25 24.5 18.25ZM24.5 15.75C24.1 15.75 23.75 15.4 23.75 15C23.75 14.6 24.1 14.25 24.5 14.25C24.9 14.25 25.25 14.6 25.25 15C25.25 15.4 24.9 15.75 24.5 15.75Z" fill="#FFA726"/>
<path d="M18.5 16.5L19.65 18.8L22.2 19.15L20.35 20.95L20.75 23.5L18.5 22.3L16.25 23.5L16.65 20.95L14.8 19.15L17.35 18.8L18.5 16.5Z" fill="#F44336"/>
</svg>
