<svg width="96" height="96" viewBox="0 0 96 96" fill="none" xmlns="http://www.w3.org/2000/svg">
<path d="M88 48C88 70.09 70.09 88 48 88C25.91 88 8 70.09 8 48C8 25.91 25.91 8 48 8C70.09 8 88 25.91 88 48Z" fill="url(#paint0_linear_1819_54046)"/>
<path opacity="0.05" d="M64.344 32.344L44 52.688L33.656 42.344C32.094 40.782 29.562 40.782 28 42.344L25.172 45.172C23.61 46.734 23.61 49.266 25.172 50.828L41.172 66.828C42.734 68.39 45.266 68.39 46.828 66.828L72.828 40.828C74.39 39.266 74.39 36.734 72.828 35.172L70 32.344C68.438 30.782 65.906 30.782 64.344 32.344Z" fill="black"/>
<path opacity="0.07" d="M41.878 66.122L25.878 50.122C24.706 48.95 24.706 47.05 25.878 45.88L28.706 43.052C29.878 41.88 31.778 41.88 32.948 43.052L44 54.102L65.05 33.052C66.222 31.88 68.122 31.88 69.292 33.052L72.12 35.88C73.292 37.052 73.292 38.952 72.12 40.122L46.12 66.122C44.95 67.292 43.05 67.292 41.878 66.122Z" fill="black"/>
<path d="M42.586 65.414L26.586 49.414C25.804 48.632 25.804 47.366 26.586 46.586L29.414 43.758C30.196 42.976 31.462 42.976 32.242 43.758L44 55.516L65.758 33.758C66.54 32.976 67.806 32.976 68.586 33.758L71.414 36.586C72.196 37.368 72.196 38.634 71.414 39.414L45.414 65.414C44.634 66.196 43.366 66.196 42.586 65.414Z" fill="white"/>
<defs>
<linearGradient id="paint0_linear_1819_54046" x1="19.716" y1="19.716" x2="76.284" y2="76.284" gradientUnits="userSpaceOnUse">
<stop stop-color="#21AD64"/>
<stop offset="1" stop-color="#088242"/>
</linearGradient>
</defs>
</svg>
